<?xml version="1.0" encoding="UTF-8" standalone="no"?>
<svg
   fill="none"
   stroke="currentColor"
   viewBox="0 0.5 24 24"
   version="1.1"
   id="svg4"
   sodipodi:docname="NuIconUserGroup2.svg"
   inkscape:version="1.2 (dc2aeda, 2022-05-15)"
   xmlns:inkscape="http://www.inkscape.org/namespaces/inkscape"
   xmlns:sodipodi="http://sodipodi.sourceforge.net/DTD/sodipodi-0.dtd"
   xmlns="http://www.w3.org/2000/svg"
   xmlns:svg="http://www.w3.org/2000/svg">
  <defs
     id="defs8" />
  <sodipodi:namedview
     id="namedview6"
     pagecolor="#ffffff"
     bordercolor="#000000"
     borderopacity="0.25"
     inkscape:showpageshadow="2"
     inkscape:pageopacity="0.0"
     inkscape:pagecheckerboard="0"
     inkscape:deskcolor="#d1d1d1"
     showgrid="false"
     inkscape:zoom="9.8333333"
     inkscape:cx="-0.10169492"
     inkscape:cy="12.050847"
     inkscape:window-width="1728"
     inkscape:window-height="1051"
     inkscape:window-x="0"
     inkscape:window-y="38"
     inkscape:window-maximized="1"
     inkscape:current-layer="svg4" />
  <path
     stroke-linecap="round"
     stroke-linejoin="round"
     stroke-width="2"
     d="m 12.40678,7.2033898 a 4,4 0 1 1 -8.0000003,0 4,4 0 0 1 8.0000003,0 z M 8.4067797,14.20339 a 7,7 0 0 0 -7,7 H 15.40678 a 7,7 0 0 0 -7.0000003,-7 z"
     id="path2" />
  <path
     id="path483"
     style="color:#000000;fill:#000000;stroke:none;-inkscape-stroke:none"
     d="m 18.203655,12.529562 c -1.512234,0 -2.88692,0.605429 -3.898437,1.583984 0.397071,0.324726 0.766873,0.678752 1.105468,1.0625 0.716045,-0.708125 1.690374,-1.146484 2.792969,-1.146484 2.014734,0 3.601336,1.459632 3.962891,3.365234 h -5.304688 c 0.222653,0.479252 0.405911,0.980278 0.542969,1.5 h 6.412109 v -0.75 c 0,-3.091862 -2.521419,-5.615234 -5.613281,-5.615234 z" />
  <path
     d="m 20.983051,8.4152537 a 2.779661,2.779661 0 1 1 -5.559322,0 2.779661,2.779661 0 0 1 5.559322,0 z"
     id="path2-3"
     style="stroke-width:1.5;stroke-dasharray:none" />
</svg>
